<?xml version="1.0" encoding="utf-8"?>
<!-- Generator: Adobe Illustrator 21.0.0, SVG Export Plug-In . SVG Version: 6.00 Build 0)  -->
<svg version="1.1" id="Layer_1" xmlns="http://www.w3.org/2000/svg" xmlns:xlink="http://www.w3.org/1999/xlink" x="0px" y="0px"
	 viewBox="0 0 338.3 63.7" style="enable-background:new 0 0 338.3 63.7;" xml:space="preserve">
<style type="text/css">
	.st0{fill:#F47920;}
</style>
<g>
	<g>
		<path class="st0" d="M14.2,51.7H46v8.8H3.8V4.1h41.1v8.8H14.2V51.7z M13.4,27.6h28v8.6h-28C13.4,36.2,13.4,27.6,13.4,27.6z"/>
		<path class="st0" d="M67.6,60.5l-18.4-43h10.5l15.9,37.9h-5.2l16.4-37.9h9.7L78,60.5H67.6z"/>
		<path class="st0" d="M120.9,61.1c-4.4,0-8.3-1-11.8-2.9c-3.4-1.9-6.1-4.5-8.1-7.9c-2-3.3-3-7.1-3-11.4s1-8.1,3-11.4
			s4.7-5.9,8.1-7.8c3.4-1.9,7.4-2.8,11.8-2.8c4.5,0,8.4,0.9,11.9,2.8s6.2,4.5,8.1,7.7c2,3.3,2.9,7.1,2.9,11.4c0,4.2-1,8-2.9,11.4
			c-2,3.3-4.7,5.9-8.1,7.9C129.3,60.1,125.3,61.1,120.9,61.1z M120.9,52.4c2.5,0,4.7-0.5,6.6-1.6c1.9-1.1,3.4-2.6,4.5-4.7
			c1.1-2,1.7-4.4,1.7-7.2s-0.6-5.2-1.7-7.2c-1.1-2-2.6-3.6-4.5-4.6c-1.9-1.1-4.1-1.6-6.5-1.6c-2.5,0-4.7,0.5-6.6,1.6
			s-3.4,2.6-4.5,4.6s-1.7,4.4-1.7,7.2c0,2.7,0.6,5.1,1.7,7.2c1.1,2,2.6,3.6,4.5,4.7C116.3,51.9,118.4,52.4,120.9,52.4z"/>
		<path class="st0" d="M180.5,61.3c-4.3,0-8.3-0.7-12-2.1c-3.7-1.4-6.9-3.4-9.6-6c-2.7-2.6-4.8-5.7-6.3-9.2s-2.3-7.4-2.3-11.6
			s0.8-8.1,2.3-11.6s3.6-6.6,6.4-9.2c2.7-2.6,5.9-4.6,9.6-6c3.6-1.4,7.6-2.1,12-2.1c4.6,0,8.8,0.8,12.6,2.4s7,3.9,9.7,7l-6.8,6.4
			c-2-2.2-4.3-3.9-6.8-5s-5.3-1.7-8.2-1.7c-3,0-5.7,0.5-8.1,1.4c-2.4,1-4.6,2.3-6.4,4.1c-1.8,1.8-3.2,3.9-4.2,6.3s-1.5,5.1-1.5,8
			s0.5,5.6,1.5,8s2.4,4.5,4.2,6.3s3.9,3.1,6.4,4.1c2.4,1,5.1,1.4,8.1,1.4s5.7-0.5,8.2-1.7c2.5-1.1,4.8-2.8,6.8-5l6.8,6.4
			c-2.6,3.1-5.9,5.4-9.7,7S185.2,61.3,180.5,61.3z"/>
		<path class="st0" d="M224.6,61.1c-3.2,0-6-0.6-8.5-1.7c-2.4-1.1-4.3-2.6-5.6-4.6s-2-4.2-2-6.6c0-2.4,0.6-4.6,1.7-6.5
			c1.2-1.9,3-3.5,5.7-4.6c2.6-1.1,6.1-1.7,10.5-1.7h12.5v6.7h-11.8c-3.4,0-5.7,0.6-6.9,1.7c-1.2,1.1-1.8,2.5-1.8,4.1
			c0,1.8,0.7,3.3,2.2,4.3c1.5,1.1,3.5,1.6,6,1.6s4.7-0.6,6.6-1.7c2-1.1,3.4-2.8,4.2-5l1.7,6c-1,2.5-2.7,4.5-5.2,5.9
			C231.5,60.4,228.4,61.1,224.6,61.1z M238.1,60.5v-8.7l-0.6-1.9V34.7c0-3-0.9-5.2-2.7-6.9c-1.8-1.6-4.5-2.5-8.1-2.5
			c-2.4,0-4.8,0.4-7.1,1.1c-2.3,0.8-4.3,1.8-5.9,3.1l-3.9-7.3c2.3-1.8,5.1-3.1,8.3-4s6.5-1.3,9.9-1.3c6.2,0,11,1.5,14.5,4.5
			s5.1,7.6,5.1,13.8v25.2L238.1,60.5L238.1,60.5z"/>
		<path class="st0" d="M260.5,60.5v-43h9.6v11.8l-1.1-3.5c1.3-2.9,3.3-5.1,6.1-6.6c2.8-1.5,6.2-2.3,10.3-2.3v9.6
			c-0.4-0.1-0.8-0.2-1.2-0.2c-0.4,0-0.8,0-1.1,0c-3.8,0-6.8,1.1-9.1,3.3c-2.3,2.2-3.4,5.5-3.4,9.9v20.9L260.5,60.5L260.5,60.5z"/>
		<path class="st0" d="M313.7,61.1c-4.8,0-9-1-12.5-2.9c-3.6-1.9-6.3-4.5-8.3-7.9C291,47,290,43.2,290,39c0-4.3,1-8.1,2.9-11.4
			s4.5-5.9,7.9-7.8c3.4-1.9,7.2-2.8,11.5-2.8c4.2,0,7.9,0.9,11.2,2.7c3.3,1.8,5.9,4.4,7.7,7.7c1.9,3.3,2.8,7.2,2.8,11.8
			c0,0.4,0,0.9,0,1.5c0,0.5-0.1,1-0.1,1.5h-35.8v-6.7h30.5l-3.9,2.1c0.1-2.5-0.5-4.6-1.5-6.5c-1.1-1.9-2.5-3.4-4.4-4.4
			c-1.9-1.1-4-1.6-6.4-1.6c-2.5,0-4.6,0.5-6.5,1.6s-3.3,2.6-4.3,4.5s-1.6,4.1-1.6,6.7v1.6c0,2.6,0.6,4.9,1.8,6.8
			c1.2,2,2.8,3.5,5,4.6c2.1,1.1,4.6,1.6,7.4,1.6c2.4,0,4.6-0.4,6.5-1.1c1.9-0.8,3.7-1.9,5.2-3.5l5.4,6.2c-1.9,2.3-4.4,4-7.3,5.2
			C320.8,60.5,317.5,61.1,313.7,61.1z"/>
	</g>
</g>
</svg>
