<?xml version="1.0" encoding="utf-8"?>
<!-- Generator: Adobe Illustrator 21.0.0, SVG Export Plug-In . SVG Version: 6.00 Build 0)  -->
<svg version="1.1" id="Layer_1" xmlns="http://www.w3.org/2000/svg" xmlns:xlink="http://www.w3.org/1999/xlink" x="0px" y="0px"
	 viewBox="0 0 1188 668" style="enable-background:new 0 0 1188 668;" xml:space="preserve">
<style type="text/css">
	.st0{fill:#FFFFFF;stroke:#367DFF;stroke-width:2;stroke-miterlimit:10;}
	.st1{fill:none;stroke:#367DFF;stroke-width:2;stroke-miterlimit:10;}
	.st2{fill:none;stroke:#367DFF;stroke-width:2;stroke-miterlimit:10;stroke-dasharray:8.78,8.78;}
	.st3{fill:#E6E9F4;}
	.st4{fill:#E6E9F4;stroke:#367DFF;stroke-width:2;stroke-miterlimit:10;}
	.st5{font-family:'OpenSans-Bold';}
	.st6{font-size:14.09px;}
	.st7{font-family:'OpenSans-Regular';}
	.st8{font-size:10.96px;}
	.st9{font-size:18px;}
	.st10{font-size:14px;}
	.st11{fill:#367DFF;}
	.st12{fill:#FFFFFF;}
	.st13{font-size:21.99px;}
	.st14{font-size:17.11px;}
	.st15{fill:#03C6FC;}
	.st16{font-size:19.73px;}
	.st17{font-size:15.35px;}
</style>
<title>Asset 5</title>
<g id="Layer_2">
	<g id="chart">
		<path class="st0" d="M17.1,1h1153.8c8.9,0,16.1,7.2,16.1,16.1v633.8c0,8.9-7.2,16.1-16.1,16.1H17.1C8.2,667,1,659.8,1,650.9V17.1
			C1,8.2,8.2,1,17.1,1z"/>
		<line class="st1" x1="570.3" y1="116" x2="570.3" y2="120"/>
		<line class="st2" x1="570.3" y1="128.7" x2="570.3" y2="194.6"/>
		<line class="st1" x1="570.3" y1="199" x2="570.3" y2="203"/>
		<line class="st1" x1="846" y1="450.1" x2="846" y2="596.1"/>
		<line class="st1" x1="912.8" y1="523.3" x2="722.9" y2="523.3"/>
		<line class="st1" x1="919" y1="450.5" x2="846.3" y2="450.5"/>
		<line class="st1" x1="905" y1="596.5" x2="846.4" y2="596.5"/>
		<line class="st1" x1="396.8" y1="366.5" x2="337.1" y2="366.5"/>
		<line class="st1" x1="449.3" y1="209.7" x2="396.2" y2="209.7"/>
		<line class="st1" x1="449.3" y1="288.9" x2="396.2" y2="288.9"/>
		<line class="st1" x1="449.3" y1="366.5" x2="396.2" y2="366.5"/>
		<line class="st1" x1="449.3" y1="448.5" x2="396.2" y2="448.5"/>
		<line class="st1" x1="449.3" y1="522.9" x2="396.2" y2="522.9"/>
		<line class="st1" x1="396.8" y1="208.9" x2="396.8" y2="523.1"/>
		<path class="st0" d="M444.5,256.3h266.8c6.6,0,12,5.4,12,12V310c0,6.6-5.4,12-12,12H444.5c-6.6,0-12-5.4-12-12v-41.7
			C432.5,261.7,437.9,256.3,444.5,256.3z"/>
		<path class="st0" d="M444.5,333.9h266.8c6.6,0,12,5.4,12,12v41.7c0,6.6-5.4,12-12,12H444.5c-6.6,0-12-5.4-12-12v-41.7
			C432.5,339.3,437.9,333.9,444.5,333.9z"/>
		<path class="st0" d="M444.5,411.5h266.8c6.6,0,12,5.4,12,12v41.7c0,6.6-5.4,12-12,12H444.5c-6.6,0-12-5.4-12-12v-41.7
			C432.5,416.9,437.9,411.5,444.5,411.5z"/>
		<path class="st0" d="M444.5,176.5h266.8c6.6,0,12,5.4,12,12v41.7c0,6.6-5.4,12-12,12H444.5c-6.6,0-12-5.4-12-12v-41.7
			C432.5,181.9,437.9,176.5,444.5,176.5z"/>
		<path class="st0" d="M444.5,490.7h266.8c6.6,0,12,5.4,12,12v41.7c0,6.6-5.4,12-12,12H444.5c-6.6,0-12-5.4-12-12v-41.7
			C432.5,496,437.9,490.7,444.5,490.7z"/>
		<line class="st1" x1="846.8" y1="209.3" x2="723.3" y2="209.4"/>
		<line class="st1" x1="846.8" y1="99.3" x2="846.8" y2="319.3"/>
		<line class="st1" x1="919.8" y1="100.1" x2="846.3" y2="100.1"/>
		<line class="st1" x1="919.8" y1="172.9" x2="846.3" y2="172.9"/>
		<line class="st1" x1="919.8" y1="245.7" x2="846.3" y2="245.7"/>
		<line class="st1" x1="919.8" y1="318.6" x2="846.3" y2="318.6"/>
		<path class="st3" d="M920.2,286H1127c6.6,0,12,5.4,12,12v41c0,6.6-5.4,12-12,12H920.2c-6.6,0-12-5.4-12-12v-41
			C908.2,291.4,913.5,286,920.2,286z"/>
		<path class="st3" d="M919.4,213.2h206.9c6.6,0,12,5.4,12,12v41c0,6.6-5.4,12-12,12H919.4c-6.6,0-12-5.4-12-12v-41
			C907.4,218.6,912.8,213.2,919.4,213.2z"/>
		<path class="st3" d="M918.7,140.4h206.8c6.6,0,12,5.4,12,12v41c0,6.6-5.4,12-12,12H918.7c-6.6,0-12-5.4-12-12v-41
			C906.7,145.8,912,140.4,918.7,140.4z"/>
		<path class="st4" d="M917.9,67.6h206.8c6.6,0,12,5.4,12,12v41c0,6.6-5.4,12-12,12H917.9c-6.6,0-12-5.4-12-12v-41
			C905.9,73,911.3,67.6,917.9,67.6z"/>
		<text transform="matrix(1 0 0 1 940.1299 96.4299)" class="st5 st6">SIPS Edutech Indonesia</text>
		<text transform="matrix(1 0 0 1 1102.4609 96.4299)" class="st5 st6"> </text>
		<a>
		</a>
		<text transform="matrix(1 0 0 1 963.6599 112.8701)" class="st7 st8">https://sipsedutech.id/</text>
		<text transform="matrix(1 0 0 1 952.03 176.8999)" class="st5 st6">Medical Informatics</text>
		<text transform="matrix(1 0 0 1 987.1201 249.72)" class="st5 st6">Okitell365</text>
		<text transform="matrix(1 0 0 1 1058.54 249.72)" class="st5 st6"> </text>
		<a>
		</a>
		<text transform="matrix(1 0 0 1 956.9399 262.87)" class="st7 st8">https://www.okitell365.jp/</text>
		<text transform="matrix(1 0 0 1 950.72 322.54)" class="st5 st6">Care24 International</text>
		<text transform="matrix(1 0 0 1 542.8401 284.47)" class="st5 st9">Tsucrea</text>
		<text transform="matrix(1 0 0 1 612.9766 284.47)" class="st5 st9"> </text>
		<a>
		</a>
		<text transform="matrix(1 0 0 1 513.9901 305.47)" class="st7 st10">https://tsucrea.com/</text>
		<text transform="matrix(1 0 0 1 477.41 362.08)" class="st5 st9">Ion Technology Center</text>
		<text transform="matrix(1 0 0 1 678.416 362.08)" class="st5 st9"> </text>
		<a>
		</a>
		<text transform="matrix(1 0 0 1 520.6 383.08)" class="st7 st10">https://iontc.co.jp/</text>
		<text transform="matrix(1 0 0 1 452.16 439.7)" class="st5 st9">Technology Seed Incubation</text>
		<text transform="matrix(1 0 0 1 703.6677 439.7)" class="st5 st9"> </text>
		<a>
		</a>
		<text transform="matrix(1 0 0 1 510.13 460.7)" class="st7 st10">https://tsi-japan.com/</text>
		<text transform="matrix(1 0 0 1 463.96 204.6499)" class="st5 st9">Human Life Management</text>
		<text transform="matrix(1 0 0 1 691.8604 204.6499)" class="st5 st9"> </text>
		<a>
		</a>
		<text transform="matrix(1 0 0 1 521.47 225.6499)" class="st7 st10">https://hlm.tokyo/</text>
		<text transform="matrix(1 0 0 1 476.67 518.8201)" class="st5 st9">Japan Strategic Capital</text>
		<text transform="matrix(1 0 0 1 680.4883 518.8201)" class="st5 st9"> </text>
		<a>
		</a>
		<text transform="matrix(1 0 0 1 505.12 539.8201)" class="st7 st10">http://jstrategic.co.jp/</text>
		<path class="st3" d="M920.9,490.8h206.9c6.6,0,12,5.4,12,12v41c0,6.6-5.4,12-12,12H920.9c-6.6,0-12-5.4-12-12v-41
			C908.9,496.1,914.3,490.8,920.9,490.8z"/>
		<path class="st3" d="M920.2,564H1127c6.6,0,12,5.4,12,12v41c0,6.6-5.4,12-12,12H920.2c-6.6,0-12-5.4-12-12v-41
			C908.2,569.3,913.5,564,920.2,564z"/>
		<path class="st3" d="M920.2,418H1127c6.6,0,12,5.4,12,12v41c0,6.6-5.4,12-12,12H920.2c-6.6,0-12-5.4-12-12v-41
			C908.2,423.3,913.5,418,920.2,418z"/>
		<text transform="matrix(1 0 0 1 991.51 446.79)" class="st5 st6">Arenabio</text>
		<text transform="matrix(1 0 0 1 1055.665 446.79)" class="st5 st6"> </text>
		<a>
		</a>
		<text transform="matrix(1 0 0 1 970.2 463.23)" class="st7 st8">https://arenabio.com/</text>
		<text transform="matrix(1 0 0 1 941.1799 519.62)" class="st5 st6">Chubu Technology Seed</text>
		<text transform="matrix(1 0 0 1 1107.4736 519.62)" class="st5 st6"> </text>
		<a>
		</a>
		<text transform="matrix(1 0 0 1 977.1201 536.0601)" class="st7 st8">http://ctseed.com/</text>
		<text transform="matrix(1 0 0 1 971.8401 592.79)" class="st5 st6">JAVIS Ventures</text>
		<text transform="matrix(1 0 0 1 1075.3135 592.79)" class="st5 st6"> </text>
		<a>
		</a>
		<text transform="matrix(1 0 0 1 957.6699 609.23)" class="st7 st8">https://javis-ventures.com/</text>
		<path class="st11" d="M60.2,326.7h266c6.6,0,12,5.4,12,12v56.2c0,6.6-5.4,12-12,12h-266c-6.6,0-12-5.4-12-12v-56.2
			C48.2,332.1,53.6,326.7,60.2,326.7z"/>
		<text transform="matrix(1 0 0 1 71.55 361.1008)" class="st12 st5 st13">Social Impact Solutions</text>
		<text transform="matrix(1 0 0 1 325.7772 361.1008)" class="st12 st5 st13"> </text>
		<a>
		</a>
		<text transform="matrix(1 0 0 1 100.3199 386.7607)" class="st12 st7 st14">https://sipsgroup.co.jp/</text>
		<path class="st15" d="M420.5,39h314.8c6.6,0,12,5.4,12,12v48c0,6.6-5.4,12-12,12H420.5c-6.6,0-12-5.4-12-12V51
			C408.5,44.4,413.9,39,420.5,39z"/>
		<text transform="matrix(1 0 0 1 423.1 71.3)" class="st12 st5 st16">Yushoukai Medical Corporation</text>
		<text transform="matrix(1 0 0 1 732.7009 71.3)" class="st12 st5 st16"> </text>
		<a>
		</a>
		<text transform="matrix(1 0 0 1 503.08 94.98)" class="st12 st7 st17">https://yushoukai.org/</text>
	</g>
</g>
</svg>
